<?xml version="1.0" encoding="utf-8"?>
<!-- Generator: Adobe Illustrator 20.1.0, SVG Export Plug-In . SVG Version: 6.00 Build 0)  -->
<svg version="1.1" id="Layer_1" xmlns="http://www.w3.org/2000/svg" xmlns:xlink="http://www.w3.org/1999/xlink" x="0px" y="0px"
	 viewBox="0 0 32 32" style="enable-background:new 0 0 32 32;" xml:space="preserve">
<style type="text/css">
	.st0{display:none;opacity:0.5;fill:#2EDD72;}
	.st1{fill:#ffffff;}
</style>
<path class="st0" d="M13.8,11.8l4.8-7.1c1-1.3,2.2-1.9,3.6-1.9c1.2,0,2.3,0.4,3.1,1.3c0.8,0.8,1.3,1.9,1.3,3c0,0.8-0.2,1.6-0.7,2.3
	l-4.5,6.4l5.4,6.9c0.6,0.6,0.8,1.5,0.8,2.4c0,1.2-0.4,2.3-1.3,3.1c-0.8,0.8-1.9,1.3-3.1,1.3c-1.3,0-2.3-0.4-3-1.3L13.6,20v4.5
	c0,1.3-0.2,2.3-0.6,3c-0.8,1.3-2.1,1.9-3.6,1.9c-1.5,0-2.5-0.5-3.3-1.5C5.4,27,5,25.8,5,24.3V7.5C5,6.2,5.4,5,6.1,4s1.9-1.5,3.3-1.5
	S11.8,3,12.7,4c0.5,0.5,0.8,1.1,1,1.6c0.1,0.4,0.1,1,0.1,1.9L13.8,11.8L13.8,11.8z"/>
<g>
	<path class="st1" d="M23.8,7.3c-6.4,0-7.5,4.2-7.5,8.8s1.1,8.8,7.5,8.8s7.5-4.2,7.5-8.8S30.1,7.3,23.8,7.3z M23.8,20.8
		c-2.5,0-2.9-1.8-2.9-4.5s0.3-4.5,2.9-4.5s2.9,1.8,2.9,4.5S26.3,20.8,23.8,20.8z"/>
	<path class="st1" d="M7.5,18h3v0.3c0,1.9,0.1,2.8-2.2,2.8c-2.1,0-2.9-1-2.9-4.8c0-4.1,1.2-4.5,3-4.5c1.3,0,2.3,0.3,3.1,0.8l2.4-3.8
		c-1.3-0.9-3.2-1.4-5.3-1.4c-5.9,0-7.8,2.9-7.8,8.8c0,5.2,1.4,8.8,7,8.8c1,0,1.9-0.1,2.6-0.2h4.2v-7.1v-3.2H8L7.5,18z"/>
</g>
</svg>
