<?xml version="1.0" encoding="utf-8"?>
<svg version="1.1" id="_x31_0" xmlns="http://www.w3.org/2000/svg" xmlns:xlink="http://www.w3.org/1999/xlink" x="0px" y="0px"
	 viewBox="0 0 512 512" style="enable-background:new 0 0 512 512;" xml:space="preserve">
<style type="text/css">
	.st0{fill:#ffffff;}
</style>
<g>
	<path class="st0" d="M256,0C114.617,0,0,114.614,0,256s114.617,256,256,256c141.386,0,256-114.614,256-256S397.386,0,256,0z
		 M222.57,387.348c-13.058,13.058-30.442,20.246-48.957,20.246c-18.07,0-35.157-6.89-48.106-19.414
		c-13.203-12.758-20.562-30.094-20.723-48.805c-0.16-18.961,7.387-37.485,20.715-50.813l68.793-68.789
		c13.055-13.055,30.43-20.242,48.93-20.242c4.102,0,8.227,0.363,12.258,1.086c4.332,0.754,8.636,1.954,12.789,3.563
		c3.774,1.445,7.465,3.254,10.961,5.382c4.695,2.848,9.066,6.286,12.996,10.211c3.59,3.594,6.778,7.566,9.473,11.812
		c0.902,1.422,0.687,3.321-0.508,4.52l-18.789,18.793c-0.687,0.684-1.602,1.062-2.57,1.062c-1.426,0-2.722-0.836-3.297-2.133
		c-1.809-4.046-4.328-7.703-7.488-10.867c-3.75-3.75-8.137-6.562-13.039-8.367c-4.066-1.523-8.332-2.297-12.695-2.297
		c-9.832,0.008-18.973,3.797-25.84,10.664l-69.649,69.641c-13.969,13.973-14.164,36.898-0.43,51.11
		c6.75,6.984,15.954,10.828,25.93,10.828c9.969,0,19.695-4.008,26.684-10.992l38.011-38.016l1.164,0.414
		c9.493,3.371,19.43,5.078,29.52,5.078c1.847,0,3.691-0.054,5.539-0.172l3.004-0.187l2.027-0.019L222.57,387.348z M386.504,223.414
		l-68.813,68.812c-13.05,13.055-30.438,20.242-48.953,20.242c-4.094,0-8.215-0.363-12.238-1.078
		c-4.402-0.785-8.707-1.984-12.785-3.562c-3.801-1.473-7.485-3.289-10.954-5.398c-4.699-2.851-9.07-6.285-12.984-10.203
		c-3.594-3.594-6.79-7.57-9.485-11.82c-0.906-1.422-0.687-3.321,0.508-4.523l18.797-18.798c0.687-0.683,1.602-1.062,2.57-1.062
		c1.426,0,2.726,0.844,3.301,2.141c1.793,4.039,4.313,7.703,7.488,10.883c3.734,3.73,8.118,6.546,13.024,8.367
		c4.074,1.515,8.351,2.281,12.71,2.281c9.821-0.012,18.961-3.797,25.821-10.648l69.64-69.649
		c13.993-13.992,14.188-36.93,0.43-51.133c-6.742-6.969-15.946-10.805-25.91-10.805c-9.977,0-19.711,4.008-26.699,11l-38.016,38.008
		l-1.16-0.414c-9.48-3.374-19.41-5.086-29.512-5.086c-1.843,0-3.687,0.054-5.534,0.172l-3.004,0.187l-2.028,0.02l56.692-56.692
		c13.058-13.062,30.453-20.25,48.969-20.25c18.062,0,35.14,6.882,48.09,19.382c13.214,12.766,20.582,30.094,20.746,48.809
		C407.379,191.562,399.832,210.086,386.504,223.414z"/>
</g>
</svg>
